<?xml version="1.0" standalone="no"?>
<!DOCTYPE svg PUBLIC "-//W3C//DTD SVG 20010904//EN"
 "http://www.w3.org/TR/2001/REC-SVG-20010904/DTD/svg10.dtd">
<svg version="1.0"
    xmlns="http://www.w3.org/2000/svg" width="980.000000pt" height="980.000000pt" viewBox="0 0 980.000000 980.000000" preserveAspectRatio="xMidYMid meet">

    <g transform="translate(0.000000,980.000000) scale(0.100000,-0.100000)" fill="currentColor" stroke="none">
        <path d="M4585 9789 c-942 -59 -1860 -398 -2620 -967 -280 -210 -640 -554
-853 -816 -519 -637 -858 -1353 -1017 -2146 -422 -2113 585 -4248 2490 -5277
1257 -679 2785 -767 4120 -238 1458 578 2567 1842 2945 3355 369 1475 46 3013
-884 4209 -255 328 -592 659 -931 913 -927 697 -2083 1040 -3250 967z m570
-3445 c111 -19 298 -80 396 -129 391 -197 672 -548 774 -969 101 -413 16 -849
-233 -1201 -73 -102 -235 -264 -337 -336 -176 -125 -399 -218 -610 -255 -134
-23 -357 -23 -490 0 -806 143 -1339 900 -1200 1701 63 361 267 693 562 914
328 247 735 345 1138 275z m-2350 -1791 c16 -97 68 -292 101 -380 399 -1075
1563 -1640 2652 -1288 459 149 855 453 1123 863 153 234 268 529 314 805 l6
37 1024 0 1025 0 0 -27 c0 -112 -59 -467 -111 -676 -295 -1175 -1093 -2168
-2179 -2711 -425 -213 -844 -341 -1325 -407 -191 -26 -677 -37 -876 -20 -975
85 -1865 490 -2558 1166 -554 541 -934 1189 -1126 1920 -60 227 -105 479 -121
670 l-7 85 1026 0 1026 0 6 -37z"/>
    </g>
</svg>
